Fly_normalized_Motion_pl10
version=1
nRows=16
nColumns=43
inDegrees=yes
endheader
time		pelvis_tilt		pelvis_list		pelvis_rotation		pelvis_tx		pelvis_ty		pelvis_tz		hip_flexion_r		hip_adduction_r		hip_rotation_r		knee_angle_r		ankle_angle_r		subtalar_angle_r		mtp_angle_r		hip_flexion_l		hip_adduction_l		hip_rotation_l		knee_angle_l		ankle_angle_l		subtalar_angle_l		mtp_angle_l		lumbar_extension		lumbar_bending		lumbar_rotation		neck_flexion		neck_lateral_bending		neck_rotation		arm_flex_r		arm_add_r		arm_rot_r		elbow_flex_r		pro_sup_r		wrist_flex_r		wrist_dev_r		hand_finger_flex_r		arm_flex_l		arm_add_l		arm_rot_l		elbow_flex_l		pro_sup_l		wrist_flex_l		wrist_dev_l		hand_finger_flex_l		
0.377500		4.846537		-28.130971		94.717902		0.009058		1.756008		1.488708		66.808730		-12.884885		0.925750		-123.820755		5.483887		2.072545		-15.426516		68.129454		-11.959843		7.833778		-123.210343		20.456296		-1.913626		-6.250017		-20.367382		2.635877		-3.423861		16.272232		3.810760		7.142304		117.107624		-20.366641		48.186594		61.602141		71.332638		-33.634584		-11.129018		51.728069		136.119740		-19.772992		81.165577		58.323657		72.338193		-43.489914		7.537442		73.871744		
0.381515		4.760606		-27.928329		94.725570		0.009059		1.756104		1.480917		67.218676		-12.751030		0.823339		-123.783199		6.322145		2.710798		-7.820585		68.395401		-11.761714		7.816215		-123.072849		20.974225		-2.922959		-8.835367		-20.505665		2.570620		-3.380821		16.071493		3.695994		7.088452		116.841496		-20.706330		47.907459		61.922049		72.816848		-33.550586		-10.111306		51.213106		135.801654		-19.719602		80.633976		58.126826		74.929439		-42.572687		8.660289		73.952196		
0.385530		4.910147		-27.682108		94.849312		0.009255		1.755989		1.473453		67.595744		-12.482138		0.470582		-123.707880		7.701526		3.121399		-6.562555		68.817352		-11.670183		8.066617		-123.000056		21.190251		-4.105080		-9.057301		-20.741427		2.700777		-3.406083		16.123313		3.771046		7.052920		116.756551		-20.880961		47.997468		61.867844		73.173597		-33.955590		-10.112855		51.028266		135.948374		-19.758610		81.122944		57.917225		75.413369		-42.504674		8.604952		73.990495		
0.389545		5.011780		-27.429507		95.014992		0.009164		1.755796		1.466014		68.014400		-12.316124		0.196075		-123.573234		8.671827		3.533083		-4.584503		69.286380		-11.430190		8.250636		-122.911226		21.106632		-5.620780		-9.448955		-21.007154		2.844916		-3.477406		16.157372		3.772631		7.010625		116.598264		-21.061137		47.988216		61.934631		73.784128		-34.566096		-9.875733		50.790549		135.936315		-19.861859		81.300941		57.820266		76.339512		-42.417092		8.673146		74.207784		
0.393561		5.065179		-27.305407		95.059654		0.009127		1.755328		1.458695		68.674229		-12.089501		0.009143		-123.305102		8.049389		2.881817		6.041237		69.916319		-11.232749		8.352146		-122.827289		21.174312		-6.828489		-11.123979		-21.135512		2.950994		-3.420577		16.155298		3.547315		6.776683		116.250726		-21.128810		47.511817		62.105729		75.347475		-34.964649		-8.594266		50.761864		135.320365		-19.973580		80.171066		57.788442		79.450310		-42.024804		9.939441		75.348322		
0.397576		5.187624		-27.032816		95.210000		0.009101		1.754921		1.451484		69.174429		-11.909204		-0.333041		-123.040687		8.443763		2.106284		6.407111		70.475158		-10.987814		8.562457		-122.758518		21.242196		-8.101599		-11.174461		-21.488418		3.094216		-3.512067		16.363604		3.653198		6.836950		115.950327		-21.223305		47.270863		62.089224		75.590633		-35.555524		-8.816248		50.505897		135.345616		-20.154999		80.439995		57.790324		79.662136		-42.067022		9.693770		75.254889		
0.401591		5.267765		-26.817007		95.350144		0.008951		1.754320		1.444417		69.828530		-11.777519		-0.642219		-122.721888		8.450922		0.906945		6.682420		71.141835		-10.696285		8.692309		-122.659555		21.280344		-9.172046		-11.235697		-21.786752		3.240122		-3.615882		16.518708		3.614570		6.870257		115.580136		-21.239433		46.939880		62.073656		76.036026		-36.303430		-8.778486		50.243746		135.153438		-20.404517		80.348471		57.847393		80.213839		-42.142583		9.577854		75.395197		
0.405606		5.375471		-26.654283		95.481862		0.008870		1.753499		1.437418		70.584429		-11.624350		-1.008466		-122.341265		8.249037		-0.672829		6.719805		71.934699		-10.426018		8.865810		-122.568592		21.261071		-9.937025		-11.326556		-22.012084		3.404590		-3.689835		16.518671		3.557187		6.896049		115.105585		-21.222253		46.507375		62.070422		76.771534		-37.144709		-8.498147		50.030824		134.763123		-20.692094		79.958592		57.958545		81.261124		-42.222195		9.639236		75.834526		
0.409621		5.484854		-26.493591		95.618526		0.008757		1.752582		1.430454		71.357006		-11.483735		-1.378873		-121.904809		8.236937		-2.119407		6.319444		72.736199		-10.157815		9.034833		-122.446541		21.540238		-10.325479		-11.400695		-22.254414		3.577271		-3.752616		16.621747		3.474612		6.917216		114.507406		-21.187217		45.858792		62.122147		77.499012		-37.918503		-8.210449		49.875575		134.259781		-20.976687		79.391909		58.082950		82.376956		-42.322657		9.751773		76.340369		
0.413636		5.690091		-26.359380		95.774860		0.008627		1.751476		1.423636		72.177884		-11.289122		-1.823391		-121.408260		8.480756		-3.163264		5.297918		73.627039		-9.939826		9.271978		-122.303667		22.043167		-10.456590		-11.569053		-22.494126		3.849763		-3.727072		16.861910		3.346513		6.918100		113.918760		-21.156758		45.121344		62.188444		78.475913		-38.447226		-7.659784		49.861820		133.597667		-21.240914		78.477705		58.198763		83.912777		-42.385410		10.123472		77.126122		
0.417652		5.763410		-26.144992		95.926939		0.008522		1.750498		1.416665		72.923617		-11.223826		-2.217091		-120.854891		8.781997		-3.954468		4.512823		74.381153		-9.631852		9.404597		-122.052704		22.437573		-10.472591		-11.707294		-22.827703		3.988368		-3.840384		16.972232		3.353250		6.949987		113.138909		-21.124414		44.264099		62.309193		79.077223		-39.182772		-7.516656		49.645649		133.011634		-21.603056		77.879545		58.471796		84.801351		-42.515556		10.102673		77.478266		
0.421667		5.797382		-25.881471		95.992442		0.008378		1.749477		1.409907		73.668729		-11.123033		-2.538924		-120.233353		9.312587		-4.198137		4.243977		75.068906		-9.363106		9.427588		-121.739697		23.041173		-10.574969		-11.728965		-23.320461		4.093735		-3.854167		17.507660		3.317551		6.958555		112.550695		-21.208024		43.555104		62.471099		79.275364		-39.582824		-7.499108		49.528482		132.581195		-21.938287		77.420159		58.707834		85.151078		-42.622605		10.046400		77.637026		
0.425682		5.900152		-25.677234		96.157148		0.008330		1.748304		1.403079		74.450080		-11.045674		-3.003932		-119.518015		9.819695		-4.331580		3.879410		75.852271		-9.055628		9.558710		-121.342916		23.547390		-10.445664		-11.824380		-23.699617		4.261852		-3.929184		17.847411		3.325509		6.978610		111.686032		-21.191958		42.568876		62.668632		79.725074		-40.221465		-7.447589		49.318763		131.938697		-22.324951		76.783553		59.022525		85.844881		-42.771064		9.968364		77.902276		
0.429697		5.926009		-25.365814		96.223060		0.008237		1.747178		1.396352		75.175355		-10.963612		-3.371972		-118.712361		10.129639		-4.281669		3.691920		76.514347		-8.765281		9.606572		-120.869833		23.831454		-10.313359		-11.893283		-24.215786		4.358709		-3.943517		17.952306		3.329387		6.991442		111.089885		-21.308928		42.067424		62.715715		80.032150		-40.533638		-7.395522		49.209914		131.434879		-22.652967		76.484796		59.195400		86.294766		-42.828189		9.950531		78.080498		
0.433712		6.411637		-25.486560		96.651315		0.008101		1.745093		1.389580		76.207363		-10.879665		-4.186511		-117.795799		10.935700		-3.775550		2.463774		77.795179		-8.450169		10.147121		-120.387605		24.576060		-9.705004		-12.762641		-24.125841		4.951643		-3.918267		18.169747		3.114367		6.969974		109.798673		-21.163355		40.426920		63.065163		82.259568		-40.566653		-6.550515		48.812989		129.944747		-23.140399		74.525732		59.679949		89.402730		-42.699018		10.596076		79.298104		
0.437727		6.433410		-25.153212		96.782531		0.008069		1.743940		1.382687		76.826433		-10.859639		-4.614584		-116.798282		11.397674		-3.447467		2.410745		78.381108		-8.088549		10.184348		-119.718503		24.949366		-9.592627		-12.863106		-24.724923		5.043021		-3.983063		18.651602		3.209170		6.921397		108.850325		-21.274898		39.410540		63.403129		82.339281		-40.970965		-6.649498		48.602682		129.337616		-23.589643		74.111746		60.113840		89.638703		-42.829754		10.529060		79.308562		
